<?xml version="1.0" encoding="utf-8"?>
<!-- Generator: Adobe Illustrator 17.0.0, SVG Export Plug-In . SVG Version: 6.00 Build 0)  -->
<!DOCTYPE svg PUBLIC "-//W3C//DTD SVG 1.1//EN" "http://www.w3.org/Graphics/SVG/1.1/DTD/svg11.dtd">
<svg version="1.1" id="Layer_1" xmlns="http://www.w3.org/2000/svg" xmlns:xlink="http://www.w3.org/1999/xlink" x="0px" y="0px"
	 width="74.074px" height="74.074px" viewBox="0 0 74.074 74.074" enable-background="new 0 0 74.074 74.074" xml:space="preserve">
<path fill="#E7D97B" d="M74.074,37.037c0,20.398-16.637,37.037-37.037,37.037C16.527,74.074,0,57.435,0,37.037
	C0,16.522,16.527,0,37.037,0C57.437,0,74.074,16.524,74.074,37.037z M65.868,36.923c0-15.953-12.878-28.831-28.831-28.831
	S8.091,20.969,8.091,36.923s12.993,28.946,28.946,28.946S65.868,52.876,65.868,36.923z M15.156,34.644
	c1.141,0,2.168,1.024,2.168,2.164s-1.027,2.166-2.168,2.166c-1.137,0-2.164-1.027-2.164-2.166
	C12.991,35.669,14.018,34.644,15.156,34.644z M47.98,33.275h-9.916l-11.851-12.99c-3.649-3.649-9.461,1.822-5.927,5.584
	l13.107,14.244c0.683,0.912,1.71,1.368,2.961,1.368H47.98C52.99,41.482,53.559,33.275,47.98,33.275z M21.995,50.597
	c1.141,0,2.164,1.025,2.164,2.167c0,1.139-1.022,2.164-2.164,2.164c-1.141,0-2.168-1.025-2.168-2.164
	C19.827,51.623,20.854,50.597,21.995,50.597z M36.808,56.523c1.141,0,2.169,1.027,2.169,2.167c0,1.139-1.027,2.164-2.169,2.164
	c-1.137,0-2.164-1.024-2.164-2.164S35.671,56.523,36.808,56.523z M36.922,13.105c1.142,0,2.168,1.027,2.168,2.166
	s-1.027,2.164-2.168,2.164c-1.137,0-2.164-1.024-2.164-2.164S35.786,13.105,36.922,13.105z M52.078,19.03
	c1.141,0,2.169,1.027,2.169,2.166s-1.027,2.166-2.169,2.166c-1.137,0-2.164-1.027-2.164-2.166S50.941,19.03,52.078,19.03z
	 M52.766,49.915c1.136,0,2.164,1.024,2.164,2.164c0,1.141-1.027,2.167-2.164,2.167c-1.141,0-2.169-1.025-2.169-2.167
	C50.597,50.939,51.624,49.915,52.766,49.915z M58.803,34.644c1.141,0,2.164,1.024,2.164,2.164s-1.022,2.166-2.164,2.166
	c-1.137,0-2.164-1.027-2.164-2.166S57.666,34.644,58.803,34.644z"/>
</svg>
