<?xml version="1.0" encoding="utf-8"?>
<!-- Generator: Adobe Illustrator 17.0.0, SVG Export Plug-In . SVG Version: 6.00 Build 0)  -->
<!DOCTYPE svg PUBLIC "-//W3C//DTD SVG 1.1//EN" "http://www.w3.org/Graphics/SVG/1.1/DTD/svg11.dtd">
<svg version="1.1" xmlns="http://www.w3.org/2000/svg" xmlns:xlink="http://www.w3.org/1999/xlink" x="0px" y="0px"
	 width="247.325px" height="89.48px" viewBox="48.006 8.639 247.325 89.48" enable-background="new 48.006 8.639 247.325 89.48"
	 xml:space="preserve">
<g id="Layer_5" display="none">
	<rect x="29.917" y="-11.6" display="inline" fill="#C2DDF9" width="281" height="158"/>
</g>
<g id="chkin_path" display="none">
	<g display="inline" enable-background="new    ">
		<path fill="#1E7FF7" d="M137.925,70.556c4.464,0,7.921,1.801,10.657,5.113c0.504,0.648,0.36,1.512-0.36,2.016l-3.312,3.168
			c-0.648,0.576-1.296,0.217-1.8-0.215c-1.152-1.297-2.952-2.305-4.968-2.305c-3.888,0-7.057,3.312-7.057,7.344
			c0,4.105,3.096,7.346,6.984,7.346c3.097,0,4.464-1.512,5.761-2.736c0.504-0.504,1.224-0.648,1.8-0.217l3.096,2.664
			c0.72,0.576,1.008,1.297,0.504,2.018c-2.448,3.816-6.265,6.047-11.377,6.047c-8.137,0-15.265-6.48-15.265-15.121
			C122.588,77.181,129.861,70.556,137.925,70.556z"/>
		<path fill="#1E7FF7" d="M155.492,51.043c0-0.72,0.648-1.368,1.368-1.368h6.121c0.72,0,1.368,0.648,1.368,1.368v21.89
			c1.44-1.08,4.248-2.377,7.632-2.377c9.145,0,12.889,7.057,12.889,14.33V98.71c0,0.721-0.648,1.369-1.368,1.369h-5.833
			c-0.792,0-1.368-0.648-1.368-1.369V84.814c0-3.961-2.232-6.48-5.688-6.48c-3.312,0-5.545,2.16-6.265,5.111V98.71
			c0,0.793-0.432,1.369-1.512,1.369h-5.977c-0.72,0-1.368-0.648-1.368-1.369V51.043z"/>
		<path fill="#1E7FF7" d="M192.931,51.043c0-0.72,0.648-1.368,1.368-1.368h6.12c0.721,0,1.368,0.648,1.368,1.368v31.179
			l9.937-10.082c0.505-0.432,1.009-0.863,1.801-0.863h6.553c1.224,0,1.656,1.295,0.936,2.088L210.285,84.31l12.817,13.752
			c0.72,0.793,0.287,2.018-0.937,2.018h-7.776c-0.433,0-1.009-0.289-1.225-0.576l-11.377-12.961V98.71
			c0,0.721-0.647,1.369-1.368,1.369h-6.12c-0.72,0-1.368-0.648-1.368-1.369V51.043z"/>
		<path fill="#1E7FF7" d="M228.139,72.644c0-0.791,0.647-1.367,1.368-1.367h5.977c0.72,0,1.368,0.576,1.368,1.367V98.71
			c0,0.721-0.648,1.369-1.368,1.369h-5.977c-0.721,0-1.368-0.648-1.368-1.369V72.644z"/>
		<path fill="#1E7FF7" d="M245.491,72.644c0-0.791,0.647-1.367,1.368-1.367h2.736c0.647,0,1.008,0.359,1.224,0.863l1.008,2.664
			c1.08-1.152,4.608-4.248,10.153-4.248c9.145,0,12.817,6.842,12.817,14.33V98.71c0,0.721-0.648,1.369-1.368,1.369h-5.904
			c-0.793,0-1.368-0.648-1.368-1.369V84.454c0-3.746-1.944-6.121-5.401-6.121c-3.744,0-6.048,2.592-6.769,4.535V98.71
			c0,1.008-0.432,1.369-1.8,1.369h-5.328c-0.721,0-1.368-0.648-1.368-1.369V72.644z"/>
	</g>
</g>
<g id="Plane">
	<path fill="#1E7FF7" d="M265.887,40.278c-0.693-0.589-1.737-0.467-2.275,0.265l-0.047,0.062l-0.433,0.592
		c-1.981,2.7-4.653,4.959-7.633,6.85c-2.984,1.885-6.267,3.384-9.694,4.507c-2.141,0.699-4.345,1.233-6.58,1.619
		c-0.424,0.073-0.846,0.159-1.272,0.219c-0.926,0.133-1.856,0.236-2.79,0.307c-2.439,0.177-4.914,0.147-7.36-0.185
		c-0.442-0.06-0.882-0.131-1.322-0.21c-0.183-0.034-0.367-0.064-0.55-0.101c-0.121-0.024-0.166,0.15-0.049,0.188
		c0.21,0.068,0.427,0.114,0.637,0.178c0.429,0.127,0.858,0.253,1.293,0.361c2.4,0.597,4.884,0.915,7.373,1.012
		c3.756,0.139,7.541-0.218,11.256-0.983c3.716-0.77,7.376-1.959,10.864-3.648c1.744-0.847,3.442-1.821,5.066-2.958
		c0.865-0.605,1.718-1.273,2.535-1.988c0.705-0.615,1.384-1.263,2.013-1.944l0.547-0.593c0.624-0.673,0.559-1.73-0.139-2.324
		L265.887,40.278z"/>
	<path fill="#1E7FF7" d="M289.431,25.973l1.894-2.392c0.727-0.918,0.574-2.248-0.343-2.974c-0.917-0.727-2.247-0.574-2.976,0.344
		l-0.466,0.587l-0.647-1.519c1.687-2.337,3.057-4.543,3.976-6.379c1.25-2.49,1.685-4.301,1.004-4.838
		c-0.679-0.54-2.342,0.294-4.483,2.083c-1.576,1.313-3.412,3.146-5.304,5.325l-1.439-0.253l0.412-0.516
		c0.727-0.919,0.572-2.248-0.344-2.977c-0.917-0.727-2.248-0.573-2.976,0.345l-1.84,2.321l-14.922-2.609
		c-0.361-0.061-0.668,0.259-0.593,0.617c0.1,0.476,0.391,0.889,0.806,1.144l12.531,7.724l-0.185,0.233
		c-0.291,0.365-0.23,0.9,0.136,1.191l2.016,1.597l-3.416,4.985l-2.953,4.573l-3.602-0.978l-2.648-0.719
		c-0.3-0.083-0.607,0.105-0.668,0.412c-0.073,0.339,0.056,0.696,0.33,0.91l4.523,3.588c-0.201,0.392-0.103,0.876,0.245,1.155
		l0.287,0.227l0.288,0.227c0.35,0.279,0.843,0.262,1.179-0.022l4.523,3.589c0.275,0.215,0.65,0.259,0.965,0.11
		c0.282-0.13,0.394-0.47,0.247-0.742l-0.841-1.559l-2.236-4.142l3.781-3.919l4.074-4.463l2.005,1.59
		c0.368,0.292,0.899,0.233,1.19-0.135l0.184-0.234l10.386,10.444c0.34,0.347,0.811,0.538,1.296,0.526
		c0.366-0.01,0.605-0.383,0.462-0.719L289.431,25.973z"/>
</g>
<g id="chkmein_text" display="none">
	<text transform="matrix(1 0 0 1 45.9175 97.3995)" display="inline"><tspan x="0" y="0" fill="#1E7FF7" font-family="'BrandonGrotesque-Bold'" font-size="72">fly</tspan><tspan x="103.318" y="0" fill="#FFFFFF" font-family="'BrandonGrotesque-Bold'" font-size="72">i</tspan><tspan x="191.445" y="0" fill="#1E7FF7" font-family="'BrandonGrotesque-Bold'" font-size="72">z</tspan><tspan x="208.797" y="0" fill="#1E7FF7" font-family="'BrandonGrotesque-Bold'" font-size="72" letter-spacing="-2">e</tspan></text>
</g>
<g id="chkmein_path">
	<g>
		<path fill="#1E7FF7" d="M63.343,67.877c4.464,0,7.921,1.8,10.657,5.112c0.504,0.648,0.36,1.512-0.36,2.016l-3.312,3.169
			c-0.648,0.576-1.296,0.216-1.8-0.216c-1.152-1.297-2.952-2.305-4.968-2.305c-3.888,0-7.057,3.312-7.057,7.345
			c0,4.104,3.096,7.345,6.984,7.345c3.097,0,4.464-1.512,5.761-2.736c0.504-0.504,1.224-0.647,1.8-0.216l3.096,2.664
			c0.72,0.576,1.008,1.296,0.504,2.017c-2.448,3.816-6.265,6.048-11.377,6.048c-8.137,0-15.265-6.48-15.265-15.121
			C48.006,74.501,55.278,67.877,63.343,67.877z"/>
		<path fill="#1E7FF7" d="M80.91,48.363c0-0.72,0.648-1.368,1.368-1.368h6.121c0.72,0,1.368,0.648,1.368,1.368v21.89
			c1.44-1.08,4.248-2.376,7.632-2.376c9.145,0,12.889,7.057,12.889,14.329v13.825c0,0.72-0.648,1.368-1.368,1.368h-5.833
			c-0.792,0-1.368-0.648-1.368-1.368V82.134c0-3.96-2.232-6.48-5.688-6.48c-3.312,0-5.545,2.16-6.265,5.112v15.266
			c0,0.792-0.432,1.368-1.512,1.368h-5.977c-0.72,0-1.368-0.648-1.368-1.368V48.363z"/>
		<path fill="#1E7FF7" d="M118.349,48.363c0-0.72,0.648-1.368,1.368-1.368h6.12c0.721,0,1.368,0.648,1.368,1.368v31.179
			l9.938-10.081c0.504-0.433,1.008-0.864,1.8-0.864h6.553c1.224,0,1.656,1.297,0.936,2.088L135.703,81.63l12.817,13.753
			c0.72,0.793,0.288,2.017-0.937,2.017h-7.776c-0.433,0-1.008-0.288-1.225-0.576l-11.377-12.961v12.169
			c0,0.72-0.647,1.368-1.368,1.368h-6.12c-0.72,0-1.368-0.648-1.368-1.368V48.363z"/>
		<path fill="#FFFFFF" d="M153.556,69.965c0-0.792,0.648-1.368,1.368-1.368h2.664c0.648,0,1.08,0.36,1.225,0.793l1.008,2.735
			c1.224-1.368,4.536-4.248,9.648-4.248c4.104,0,6.985,1.584,9.361,4.464c1.224-1.296,4.968-4.464,10.152-4.464
			c9.217,0,12.602,6.841,12.602,14.401v13.753c0,0.72-0.576,1.368-1.368,1.368h-5.833c-0.792,0-1.368-0.648-1.368-1.368V81.775
			c0-3.744-1.8-6.121-5.4-6.121c-4.176,0-6.048,3.024-6.048,3.024s0.071,1.44,0.071,2.736v14.617c0,0.72-0.647,1.368-1.367,1.368
			h-5.401c-0.792,0-1.368-0.648-1.368-1.368V81.775c0-3.744-1.655-6.121-5.328-6.121c-3.601,0-5.328,2.592-6.049,4.536v15.842
			c0,0.72-0.647,1.368-1.367,1.368h-5.833c-0.72,0-1.368-0.648-1.368-1.368V69.965z"/>
		<path fill="#FFFFFF" d="M222.173,67.877c7.416,0,13.465,5.616,13.465,13.394c0,0.504-0.072,1.439-0.144,1.943
			c-0.072,0.721-0.721,1.225-1.368,1.225h-18.434c0.216,2.952,2.736,6.265,6.912,6.265c2.232,0,4.32-0.864,5.617-1.801
			c0.72-0.432,1.367-0.576,1.872,0l2.952,3.385c0.504,0.504,0.647,1.296-0.072,1.872c-2.376,2.232-6.049,3.96-10.729,3.96
			c-8.642,0-14.762-6.84-14.762-15.121C207.484,74.861,213.604,67.877,222.173,67.877z M227.213,79.398
			c-0.216-2.664-2.52-4.896-5.256-4.896c-2.881,0-5.257,2.16-5.617,4.896H227.213z"/>
		<path fill="#1E7FF7" d="M241.683,69.965c0-0.792,0.648-1.368,1.368-1.368h5.977c0.72,0,1.368,0.576,1.368,1.368v26.066
			c0,0.72-0.648,1.368-1.368,1.368h-5.977c-0.72,0-1.368-0.648-1.368-1.368V69.965z"/>
		<path fill="#1E7FF7" d="M259.035,69.965c0-0.792,0.648-1.368,1.368-1.368h2.736c0.648,0,1.008,0.36,1.224,0.864l1.009,2.664
			c1.08-1.151,4.608-4.248,10.152-4.248c9.146,0,12.817,6.841,12.817,14.329v13.825c0,0.72-0.648,1.368-1.368,1.368h-5.904
			c-0.792,0-1.368-0.648-1.368-1.368V81.775c0-3.744-1.944-6.121-5.4-6.121c-3.744,0-6.049,2.592-6.769,4.536v15.842
			c0,1.008-0.433,1.368-1.801,1.368h-5.328c-0.72,0-1.368-0.648-1.368-1.368V69.965z"/>
	</g>
</g>
</svg>
