<?xml version="1.0" encoding="utf-8"?>
<!-- Generator: Adobe Illustrator 17.0.0, SVG Export Plug-In . SVG Version: 6.00 Build 0)  -->
<!DOCTYPE svg PUBLIC "-//W3C//DTD SVG 1.1//EN" "http://www.w3.org/Graphics/SVG/1.1/DTD/svg11.dtd">
<svg version="1.1" id="Layer_1" xmlns="http://www.w3.org/2000/svg" xmlns:xlink="http://www.w3.org/1999/xlink" x="0px" y="0px"
	 width="66.667px" height="30px" viewBox="0 0 66.667 30" enable-background="new 0 0 66.667 30" xml:space="preserve">
<path fill="#ECF0F1" d="M52.963,8.814l-2-3.037"/>
<path fill="#ECF0F1" d="M63.259,16.223c0,0,0.222,0.074,0.741-0.074l2.444-0.889l0,0c0.148,0.074,0.222-0.074,0.222-0.223l0,0l0,0
	c0-0.148-0.074-0.296-0.222-0.296l0,0l-2.444-0.889c-0.519-0.148-0.741-0.074-0.741-0.074l-6.884-0.611
	c-0.667,0-1.464-1.272-1.464-1.272L53.63,9.851L50.296,4.74l-2.963-4.519C47.185,0,46.889,0,46.889,0h-0.074h-1.037
	c-0.296,0-0.148,0.296-0.148,0.296l3.333,10.297c0.222,0.667,0.296,1.481,0.296,1.481v1.093h-2.3c0,0-5.042,0.125-7.255,1.352
	L36,10.148c0,0-0.148-0.148-0.37-0.148h-0.889l1.778,5.037l-1.778,5.037h0.815c0.296,0,0.37-0.148,0.37-0.148l3.704-4.37
	C42.083,16.875,47,16.708,47,16.708h2.184v1.293c0,0,0,0.815-0.296,1.481l-3.333,10.222c0,0-0.148,0.296,0.148,0.296h1.037h0.074
	c0,0,0.222,0,0.444-0.222l2.963-4.519l3.334-5.111l1.564-2.346c0,0,0.88-1.094,1.547-1.094L63.259,16.223z"/>
<path fill="#ECF0F1" d="M9.542,15c0-2.651-2.12-4.771-4.77-4.771S0.001,12.349,0.001,15s2.12,4.771,4.771,4.771
	C7.42,19.772,9.542,17.651,9.542,15z M2.544,15c0-1.272,1.061-2.227,2.227-2.227c1.272,0,2.227,1.061,2.227,2.227
	c0,1.272-1.061,2.227-2.227,2.227C3.603,17.227,2.544,16.272,2.544,15z"/>
<path fill="#ECF0F1" d="M33.333,16.076h-4.151v-2.152h4.151V16.076z M25.031,16.076H20.88v-2.152h4.151V16.076z M16.729,16.076
	h-4.151v-2.152h4.151V16.076z"/>
<path fill="#ECF0F1" d="M44.458,20.875"/>
</svg>
